<svg xmlns="http://www.w3.org/2000/svg" width="64" height="40" fill="none"><circle cx="20" cy="20" r="20" fill="#000" opacity=".201"/><path fill="#FFD473" fill-rule="evenodd" d="m37.484 16.741-1.758-5.74h-1.082c-1.821 0-3.564.76-4.782 2.086l-3.357 3.654h10.979Zm11.079-1.779.726 1.78H40.17L38.413 11h4.178c2.645 0 4.99 1.556 5.972 3.962ZM52.936 31c1.942 0 3.517-1.542 3.517-3.445 0-1.903-1.575-3.445-3.517-3.445s-3.516 1.542-3.516 3.445c0 1.903 1.574 3.445 3.516 3.445Zm-4.18-11.738H40.5v1.393c0 .679-.533 1.263-1.225 1.295-.739.034-1.349-.543-1.349-1.26v-1.428h-15.62c-1.24 0-2.305.969-2.305 2.242l-.001.252h1.422c.693 0 1.29.522 1.322 1.2.035.724-.554 1.322-1.285 1.322h-1.142c.694 2.019 2.47 3.533 4.61 3.93-.398-3.557 2.457-6.62 6.052-6.62 3.642 0 6.505 3.135 6.04 6.723h9.878c-.465-3.584 2.393-6.723 6.04-6.723 3.594 0 6.449 3.063 6.052 6.62 2.8-.516 4.926-2.928 4.926-5.82 0-.932-.72-1.72-1.676-1.813l-13.483-1.313ZM30.978 31c1.942 0 3.517-1.542 3.517-3.445 0-1.903-1.575-3.445-3.517-3.445s-3.516 1.542-3.516 3.445c0 1.903 1.574 3.445 3.516 3.445Z" clip-rule="evenodd"/></svg>