<svg width="64" height="40" viewBox="0 0 64 40" fill="none" xmlns="http://www.w3.org/2000/svg">
<circle opacity="0.201403" cx="20" cy="20" r="20" fill="black"/>
<path fill-rule="evenodd" clip-rule="evenodd" d="M45.4751 13.6936C48.7742 13.6927 48.9455 13.6926 49.116 13.7041L49.1445 13.7061C49.1721 13.7081 49.2038 13.7104 49.2508 13.7129L48.6199 12.1342C47.6354 9.67053 45.2864 8.07861 42.6356 8.07861H38.5276L40.2107 13.6944C42.5243 13.6944 44.221 13.6939 45.4701 13.6936H45.472L45.4751 13.6936ZM27.8822 13.6944L29.0043 8.0787H23.439C22.8752 8.0787 22.3768 8.4455 22.2087 8.98416C21.6241 10.8565 21.1971 12.2237 20.8848 13.2233L20.8848 13.2235L20.7377 13.6944H27.8822V13.6944ZM35.836 8.0787L37.519 13.6944H30.5115L31.6334 8.0787H35.836ZM27.65 20.5827V16.2749H20.004C19.9993 16.5961 19.9997 17.3774 20.0005 19.3812L20.0007 19.7775H21.4626C22.1745 19.7775 22.7516 20.3553 22.7516 21.0679C22.7516 21.7805 22.1745 22.3582 21.4626 22.3582H20.0014L20.0016 23.9926C20.0016 26.0513 21.6156 27.7393 23.6436 27.8565C23.3611 24.7742 25.0052 21.9354 27.65 20.5827ZM61.253 21.0055C61.2181 21.7465 61.808 22.3582 62.5406 22.3582H63.986C63.8224 24.583 62.4162 26.5509 60.3863 27.408C60.5163 23.1964 57.1307 19.7775 53.0015 19.7775C48.6854 19.7775 45.2398 23.4957 45.644 27.8636H38.359C38.7897 23.2085 34.8561 19.3327 30.228 19.818V16.2749H37.9624V17.7373C37.9624 18.4706 38.5735 19.0611 39.3137 19.0261C40.0071 18.9935 40.5405 18.3956 40.5405 17.7008V16.2749H48.8412L61.8974 16.991C62.4393 17.0208 62.9046 17.3875 63.0613 17.9075L63.2567 18.5559L63.2579 18.5597C63.4208 19.0999 63.5381 19.4893 63.6241 19.7775H62.577C61.8829 19.7775 61.2856 20.3115 61.253 21.0055ZM52.2995 31.9408C54.4623 32.2586 56.545 31.0808 57.4115 29.1014C58.8004 25.9245 56.4592 22.3582 53.0016 22.3582C50.0864 22.3582 47.8207 24.9485 48.239 27.8636C48.5391 29.9533 50.1922 31.6315 52.2995 31.9408ZM26.239 27.8636C25.8195 24.9401 28.0958 22.3582 31.0015 22.3582C33.9189 22.3582 36.1821 24.9508 35.7642 27.8635C35.5231 29.5412 34.4019 30.9925 32.8018 31.6415C30.9654 32.3865 28.8648 31.924 27.5018 30.4768C26.4851 29.3972 26.304 28.2504 26.2555 27.9431C26.2474 27.8915 26.243 27.8636 26.239 27.8636Z" fill="#26B5C0"/>
</svg>
